<svg xmlns="http://www.w3.org/2000/svg" viewBox="0 0 600 400"><rect width="600" height="400" fill="#003399"/><g fill="#FFCC00"><path d="M300,50 l29.389,90.902h95.553l-77.311,56.176l29.389,90.902L300,230.902l-77.311,56.176l29.389,-90.902L174.758,140.902h95.553z"/><path d="M300,50 l-29.389,90.902h-95.553l77.311,56.176l-29.389,90.902L300,230.902l77.311,56.176l-29.389,-90.902L422.242,140.902h-95.553z" transform="rotate(30,300,200)"/><path d="M300,50 l29.389,90.902h95.553l-77.311,56.176l29.389,90.902L300,230.902l-77.311,56.176l29.389,-90.902L174.758,140.902h95.553z" transform="rotate(60,300,200)"/><path d="M300,50 l-29.389,90.902h-95.553l77.311,56.176l-29.389,90.902L300,230.902l77.311,56.176l-29.389,-90.902L422.242,140.902h-95.553z" transform="rotate(90,300,200)"/><path d="M300,50 l29.389,90.902h95.553l-77.311,56.176l29.389,90.902L300,230.902l-77.311,56.176l29.389,-90.902L174.758,140.902h95.553z" transform="rotate(120,300,200)"/><path d="M300,50 l-29.389,90.902h-95.553l77.311,56.176l-29.389,90.902L300,230.902l77.311,56.176l-29.389,-90.902L422.242,140.902h-95.553z" transform="rotate(150,300,200)"/></g></svg>
