<svg id="Layer_2" data-name="Layer 2" xmlns="http://www.w3.org/2000/svg" xmlns:xlink="http://www.w3.org/1999/xlink" viewBox="0 0 413.41 102.52">
  <defs>
    <style>
      .cls-1 {
        font-family: SpaceGrotesk-Medium, 'Space Grotesk';
        font-size: 13.81px;
        font-weight: 500;
      }

      .cls-2 {
        letter-spacing: -.04em;
      }

      .cls-3 {
        letter-spacing: -.03em;
      }

      .cls-4 {
        fill: #77b800;
      }

      .cls-5 {
        letter-spacing: -.02em;
      }

      .cls-6 {
        letter-spacing: -.05em;
      }

      .cls-7 {
        letter-spacing: -.03em;
      }

      .cls-8 {
        fill: #007f7f;
      }

      .cls-9 {
        letter-spacing: -.02em;
      }

      .cls-10 {
        fill: url(#linear-gradient);
      }

      .cls-11 {
        letter-spacing: -.04em;
      }

      .cls-12 {
        letter-spacing: -.11em;
      }
    </style>
    <linearGradient id="linear-gradient" x1="46.72" y1="107.17" x2="40.48" y2="8.47" gradientUnits="userSpaceOnUse">
      <stop offset=".02" stop-color="#00d4d4"/>
      <stop offset=".8" stop-color="#007f7f"/>
    </linearGradient>
  </defs>
  <g id="Layer_1-2" data-name="Layer 1">
    <g>
      <g>
        <path class="cls-8" d="M107.38,27.46h10.77l17.75,40.57,17.5-40.57h10.71v50.37h-8.38v-36.6l-16.03,36.6h-7.71l-16.22-36.78v36.78h-8.38V27.46Z"/>
        <path class="cls-8" d="M168.51,52.61c0-14.01,11.14-26.19,26.19-26.19s27.48,13.34,25.95,28.4h-43.88c.73,8.81,8.14,15.97,17.87,15.97,7.22,0,13.28-4.41,15.79-10.22h9.18c-3.18,10.34-12.97,18.18-24.91,18.18-15.06,0-26.19-12.12-26.19-26.13ZM211.78,47.47c-1.71-7.34-8.69-13.22-17.14-13.22s-15.3,5.88-17.14,13.22h34.27Z"/>
        <path class="cls-8" d="M225.17,27.34h9.55c19.09,0,27.48,11.44,27.48,25.15s-8.38,25.34-27.48,25.34h-9.55V27.34ZM235.64,69.38c12.3,0,18.11-7.34,18.11-16.89s-5.81-16.77-18.11-16.77h-2.08v33.66h2.08Z"/>
        <path class="cls-4" d="M266.6,27.4h11.14c15.85,0,21.66,9.24,21.66,19.28s-6.06,19.28-20.75,19.28h-3.67v11.93h-8.38V27.4ZM279.03,57.81c7.96,0,12.18-4.53,12.18-11.14s-4.34-11.08-12.18-11.08h-4.04v22.22h4.04Z"/>
        <path class="cls-4" d="M302.77,77.83h-8.81l19.46-50.37h8.81l18.97,50.37h-8.63l-2.69-7.41-27.11,7.41ZM327.25,63.26l-9.42-25.89-12.43,32.98,21.86-7.09Z"/>
        <path class="cls-4" d="M340.22,61.55h8.26c.12,5.32,3.31,9.42,9.24,9.42,5.26,0,8.75-3.18,8.75-7.65,0-5.26-4.34-6.73-10.46-8.75-8.02-2.63-13.46-6.49-13.46-14.57,0-7.59,6.36-13.65,15.06-13.65,9.49,0,15.36,6.24,15.42,15.61l-8.08-.12c-.06-4.59-2.51-7.83-7.34-7.83-4.16,0-6.79,2.57-6.79,6.12,0,4.35,3.55,5.69,8.2,7.28,8.26,2.82,15.97,5.39,15.97,16.03,0,9.24-7.34,15.24-17.26,15.24-10.53,0-17.44-7.1-17.5-17.14Z"/>
        <path class="cls-4" d="M378.65,61.55h8.26c.12,5.32,3.31,9.42,9.24,9.42,5.26,0,8.75-3.18,8.75-7.65,0-5.26-4.34-6.73-10.46-8.75-8.02-2.63-13.46-6.49-13.46-14.57,0-7.59,6.36-13.65,15.05-13.65,9.49,0,15.36,6.24,15.42,15.61l-8.08-.12c-.06-4.59-2.51-7.83-7.34-7.83-4.16,0-6.79,2.57-6.79,6.12,0,4.35,3.55,5.69,8.2,7.28,8.26,2.82,15.97,5.39,15.97,16.03,0,9.24-7.34,15.24-17.26,15.24-10.53,0-17.44-7.1-17.5-17.14Z"/>
      </g>
      <text class="cls-1" transform="translate(266.87 98.64)"><tspan class="cls-12" x="0" y="0">Y</tspan><tspan class="cls-9" x="7.02" y="0">our Health</tspan><tspan class="cls-6" x="73.26" y="0">,</tspan><tspan class="cls-11" x="76.3" y="0"> </tspan><tspan class="cls-5" x="79.34" y="0">A</tspan><tspan class="cls-3" x="87.76" y="0">n</tspan><tspan class="cls-9" x="95.84" y="0">ywhe</tspan><tspan class="cls-2" x="130.6" y="0">r</tspan><tspan class="cls-7" x="135.39" y="0">e</tspan><tspan class="cls-6" x="143.06" y="0">.</tspan></text>
      <g>
        <path class="cls-10" d="M83.23,27.18v53.4c0,5.24-7.28,6.52-9.07,1.6l-9.04-46.47h-1.37l2.07,45.56c.09,2.02-1.51,3.7-3.53,3.7h-12.01c-1.62,0-3.04-1.1-3.43-2.68l-11.65-46.58h-1.23v44.17c0,2.13-1.73,3.86-3.86,3.86h-11.39c-1.86,0-3.46-1.33-3.8-3.17L6.77,35.71h-2.66c-1.26,0-2.33-.88-2.58-2.11L.04,26.16c-.28-1.43.81-2.76,2.27-2.76h77.14c2.09,0,3.78,1.69,3.78,3.78Z"/>
        <circle class="cls-8" cx="18.81" cy="9.85" r="9.85"/>
        <circle class="cls-8" cx="48.9" cy="9.85" r="9.85"/>
      </g>
    </g>
  </g>
</svg>
